<?xml version="1.0" encoding="UTF-8"?>
<svg xmlns="http://www.w3.org/2000/svg" xmlns:xlink="http://www.w3.org/1999/xlink" width="15px" height="17px" viewBox="0 0 15 17" version="1.1">
<g id="surface1">
<path style=" stroke:none;fill-rule:nonzero;fill:rgb(0%,0%,0%);fill-opacity:1;" d="M 15 8.667969 C 15 12.773438 12.019531 15.695312 7.625 15.695312 C 3.40625 15.695312 0 12.484375 0 8.5 C 0 4.515625 3.40625 1.304688 7.625 1.304688 C 9.675781 1.304688 11.402344 2.015625 12.734375 3.1875 L 10.660156 5.070312 C 7.945312 2.597656 2.902344 4.453125 2.902344 8.5 C 2.902344 11.007812 5.019531 13.042969 7.625 13.042969 C 10.640625 13.042969 11.773438 11.003906 11.949219 9.941406 L 7.625 9.941406 L 7.625 7.464844 L 14.878906 7.464844 C 14.949219 7.835938 15 8.1875 15 8.667969 Z M 15 8.667969 "/>
</g>
</svg>
